<svg xmlns="http://www.w3.org/2000/svg" width="512" height="512" viewBox="0 0 512 512">
<g>
<path d="M 262.83 413.19 C259.29,415.51 252.93,415.12 248.40,412.30 C246.25,410.97 243.60,409.45 242.50,408.93 C225.66,400.96 175.75,364.77 167.25,354.36 C165.51,352.24 163.15,349.60 162.00,348.50 C149.97,336.98 145.46,332.17 140.18,325.23 C136.78,320.77 134.00,316.78 134.00,316.37 C134.00,315.96 133.15,314.70 132.11,313.56 C125.57,306.43 114.31,278.62 115.36,272.18 C115.71,270.00 115.33,267.61 114.33,265.67 C113.00,263.11 112.84,260.24 113.32,248.55 C114.19,227.77 117.74,214.77 126.23,201.28 C133.58,189.59 149.55,179.35 159.87,179.71 C163.27,179.83 166.08,179.34 167.56,178.37 C170.02,176.76 177.19,176.88 191.00,178.77 C201.28,180.17 215.38,186.28 223.70,192.94 C225.47,194.35 229.19,197.30 231.98,199.50 C236.11,202.76 247.09,214.19 250.22,218.50 C250.62,219.05 252.09,220.85 253.48,222.50 L 256.00 225.50 L 258.59 222.50 C260.01,220.85 263.05,217.27 265.34,214.54 C271.92,206.70 282.17,197.03 286.07,195.00 C288.03,193.98 290.25,192.40 291.01,191.49 C294.25,187.59 311.84,180.15 321.00,178.80 C334.52,176.82 340.67,176.75 344.39,178.52 C346.88,179.70 349.09,179.99 351.91,179.52 C355.09,178.98 357.18,179.41 362.20,181.65 C376.16,187.87 383.68,195.04 390.35,208.50 C394.52,216.90 396.12,221.72 397.10,228.75 C397.69,232.99 398.39,236.83 398.67,237.27 C398.94,237.71 399.12,243.48 399.07,250.10 C399.00,258.84 398.56,262.96 397.44,265.12 C396.29,267.33 396.11,269.16 396.73,272.29 C397.86,277.98 396.46,282.57 388.56,299.18 C381.55,313.93 361.84,340.06 354.00,345.00 C350.28,347.34 346.84,350.93 347.41,351.86 C347.70,352.32 340.75,358.66 331.96,365.94 C316.90,378.42 310.17,383.44 293.50,394.61 C289.65,397.19 284.70,400.53 282.50,402.03 C280.30,403.54 276.92,405.48 275.00,406.36 C271.36,408.03 266.86,410.55 262.83,413.19 ZM 248.18 394.96 C251.66,397.12 255.14,398.91 255.91,398.94 C256.69,398.97 260.89,396.91 265.24,394.36 C269.59,391.81 273.91,389.67 274.83,389.61 C275.75,389.54 277.80,388.26 279.40,386.75 C280.99,385.24 282.82,384.00 283.46,384.00 C284.11,384.00 286.41,382.38 288.57,380.41 C290.73,378.43 293.66,376.07 295.07,375.16 C303.24,369.90 323.27,354.56 329.38,348.87 C333.29,345.22 337.49,341.94 338.70,341.57 C339.91,341.20 341.21,339.93 341.58,338.74 C341.96,337.56 346.07,332.29 350.72,327.04 C370.77,304.41 381.17,285.14 383.91,265.53 C385.14,256.73 383.63,235.88 381.12,226.92 C375.65,207.43 363.91,195.68 347.18,192.94 C338.49,191.52 326.44,191.79 322.35,193.50 C320.37,194.32 318.07,195.00 317.23,195.00 C315.01,195.00 305.19,199.84 300.17,203.42 C287.88,212.16 276.87,223.13 269.00,234.48 C260.42,246.84 260.12,247.13 255.74,246.80 C251.80,246.51 251.44,246.18 245.23,237.00 C237.99,226.29 222.59,210.44 213.44,204.27 C206.77,199.77 198.68,196.11 189.52,193.46 C181.35,191.09 164.34,191.89 157.59,194.96 C147.41,199.60 141.30,204.65 138.20,211.00 C137.53,212.38 136.12,214.85 135.06,216.50 C134.01,218.15 133.11,220.23 133.07,221.12 C133.03,222.01 132.06,225.61 130.92,229.12 C129.19,234.43 128.82,238.27 128.70,252.00 C128.57,267.53 128.73,269.03 131.39,277.50 C132.94,282.45 134.55,287.17 134.96,288.00 C140.20,298.56 143.45,303.97 149.33,311.85 C156.16,321.02 166.28,332.72 168.75,334.30 C169.44,334.74 170.00,336.01 170.00,337.12 C170.00,339.44 172.22,342.00 174.22,342.00 C174.97,342.00 177.59,344.07 180.04,346.61 C184.40,351.11 194.28,359.00 195.56,359.00 C195.91,359.00 199.62,361.75 203.80,365.12 C207.99,368.48 213.03,372.26 215.02,373.51 C217.01,374.77 220.50,377.64 222.78,379.90 C225.06,382.15 227.54,384.00 228.29,384.00 C229.04,384.00 230.71,385.13 232.01,386.51 C233.31,387.89 236.06,389.48 238.12,390.03 C240.18,390.59 244.71,392.81 248.18,394.96 ZM 109.20 205.31 C104.85,209.48 100.38,208.56 97.45,202.90 C96.00,200.10 96.04,199.67 98.02,196.47 C99.19,194.58 99.88,192.61 99.55,192.08 C98.89,191.01 106.89,171.00 107.99,171.00 C108.60,171.00 110.29,167.54 112.40,162.00 C112.71,161.18 113.77,159.39 114.74,158.04 C115.85,156.50 115.99,155.90 115.12,156.43 C114.37,156.89 115.43,154.06 117.50,150.14 C119.56,146.21 121.64,143.00 122.12,143.00 C122.61,143.00 123.00,142.24 123.00,141.31 C123.00,139.57 132.04,123.47 139.46,112.00 C145.09,103.28 154.14,87.76 157.51,81.04 C160.06,75.95 160.22,74.93 159.78,65.97 C159.45,58.95 158.81,55.48 157.42,53.14 C155.51,49.90 152.23,48.31 149.58,49.33 C146.43,50.54 128.08,73.84 122.55,83.64 C121.67,85.21 120.06,87.85 118.98,89.50 C117.91,91.15 116.60,93.47 116.08,94.65 C115.55,95.84 114.65,97.10 114.06,97.46 C113.48,97.82 113.00,98.80 113.00,99.62 C113.00,100.45 111.68,102.24 110.07,103.59 C108.46,104.95 106.83,107.50 106.45,109.28 C105.66,112.87 101.28,121.78 99.29,123.82 C98.58,124.55 98.00,125.60 98.00,126.15 C98.00,126.70 96.43,130.42 94.51,134.41 C92.59,138.40 90.87,142.98 90.68,144.58 C90.28,147.97 85.61,157.50 83.80,158.63 C81.57,160.00 76.54,159.03 74.75,156.88 C73.79,155.72 73.00,153.59 73.00,152.14 C73.01,148.87 85.45,119.91 87.50,118.39 C88.33,117.78 89.03,116.43 89.07,115.39 C89.10,114.35 90.56,110.69 92.32,107.25 C100.25,91.67 104.51,84.00 105.22,84.00 C105.65,84.00 106.00,83.47 106.00,82.82 C106.00,82.18 107.50,79.36 109.34,76.57 C111.17,73.78 115.32,67.45 118.55,62.50 C121.79,57.55 128.50,49.39 133.48,44.36 C143.56,34.17 147.43,32.24 155.33,33.42 C160.90,34.26 164.41,36.91 167.14,42.34 C168.29,44.63 169.93,47.29 170.77,48.25 C172.23,49.91 172.49,49.86 175.65,47.45 C184.17,40.96 193.72,39.29 201.03,43.01 C205.86,45.48 211.12,51.08 212.60,55.33 C212.99,56.45 213.19,57.19 213.67,57.64 C214.58,58.50 216.51,58.27 222.75,57.53 C223.21,57.48 223.69,57.42 224.19,57.36 C231.34,56.53 237.64,60.32 242.37,68.31 C244.37,71.69 246.03,75.59 246.07,76.98 C246.11,78.36 246.50,80.40 246.95,81.50 C247.39,82.60 247.41,83.95 246.99,84.50 C246.58,85.05 245.97,88.20 245.64,91.50 C245.30,94.80 244.76,99.13 244.42,101.12 C243.88,104.35 244.07,104.80 246.23,105.34 C247.56,105.68 250.32,107.08 252.36,108.47 L 256.07 110.98 L 259.78 108.64 C261.83,107.35 264.51,105.97 265.75,105.58 C268.27,104.78 268.68,101.91 266.93,97.32 C266.34,95.77 265.68,91.57 265.47,88.00 C264.42,70.27 275.51,55.74 288.90,57.31 C291.43,57.61 294.48,58.15 295.68,58.52 C297.52,59.09 298.20,58.52 300.04,54.85 C307.48,40.02 322.61,36.68 335.70,46.98 C337.12,48.09 338.62,49.00 339.05,49.00 C339.48,49.00 341.18,46.80 342.84,44.11 C347.24,36.95 351.71,33.92 358.71,33.33 C363.99,32.88 364.95,33.13 369.62,36.17 C372.43,38.00 377.19,42.20 380.19,45.50 C386.22,52.13 396.00,64.56 396.00,65.61 C396.00,65.98 398.39,69.93 401.31,74.39 C409.96,87.61 410.36,88.26 413.49,94.16 C415.15,97.27 418.04,102.67 419.92,106.16 C421.80,109.65 423.26,113.71 423.16,115.18 C423.04,116.97 423.57,118.04 424.74,118.42 C426.40,118.94 429.89,125.43 431.51,131.00 C431.92,132.38 432.64,133.99 433.11,134.59 C434.57,136.42 440.00,150.16 440.00,152.00 C440.00,152.95 439.05,154.94 437.89,156.42 C436.12,158.67 435.12,159.05 431.74,158.80 C427.10,158.45 426.43,157.47 418.40,139.00 C413.45,127.63 398.93,97.81 397.94,97.00 C397.60,96.72 395.39,93.12 393.01,89.00 C385.01,75.10 373.94,60.08 366.23,52.66 C359.10,45.81 354.43,49.30 352.90,62.62 C351.79,72.31 352.47,77.51 355.54,82.59 C356.83,84.74 358.57,87.97 359.40,89.76 C360.93,93.07 364.62,99.01 372.79,111.33 C375.28,115.08 378.48,120.31 379.91,122.95 C381.33,125.59 384.06,130.40 385.98,133.63 C387.89,136.86 389.33,140.24 389.18,141.14 C389.03,142.05 390.00,143.64 391.33,144.69 C394.55,147.22 398.20,154.40 396.92,155.68 C396.28,156.32 396.65,157.56 397.97,159.24 C399.09,160.65 400.00,162.32 400.00,162.95 C400.00,164.91 403.75,171.43 405.92,173.24 C407.06,174.20 408.00,175.68 408.00,176.55 C408.00,177.41 408.91,180.11 410.02,182.55 C413.53,190.26 413.99,191.84 412.81,192.23 C411.49,192.67 413.51,197.00 415.04,197.00 C415.57,197.00 416.00,198.31 416.00,199.91 C416.00,202.98 411.26,208.00 408.36,208.00 C403.95,208.00 400.00,202.65 400.00,196.67 C400.00,194.79 399.33,192.68 398.50,192.00 C397.67,191.32 397.00,189.71 397.00,188.43 C397.00,187.15 396.43,185.74 395.73,185.30 C393.98,184.20 391.82,179.19 391.33,175.11 C391.10,173.24 390.04,170.59 388.96,169.22 C387.88,167.85 387.00,166.12 387.00,165.37 C387.00,164.61 386.60,164.00 386.10,164.00 C385.61,164.00 383.76,161.19 381.99,157.75 C380.22,154.31 377.90,150.05 376.83,148.29 C375.76,146.52 374.66,143.86 374.39,142.38 C373.76,138.87 372.19,136.00 370.91,136.00 C370.36,136.00 369.24,134.54 368.43,132.75 C367.63,130.96 366.53,128.82 366.00,128.00 C365.47,127.18 363.37,123.57 361.33,120.00 C359.29,116.43 357.03,112.91 356.31,112.18 C355.59,111.45 355.00,110.46 355.00,109.98 C355.00,109.50 353.88,107.89 352.50,106.41 C351.12,104.92 350.00,103.28 350.00,102.76 C350.00,102.24 349.10,100.67 348.00,99.28 C346.91,97.88 345.54,95.00 344.96,92.87 C344.39,90.74 343.49,89.00 342.96,89.00 C342.43,89.00 342.00,88.38 342.00,87.62 C342.00,86.86 341.37,85.72 340.60,85.08 C339.83,84.45 338.98,82.25 338.70,80.21 C337.80,73.50 336.22,68.93 333.34,64.68 C331.78,62.38 330.15,60.34 329.71,60.15 C329.28,59.96 327.64,58.73 326.07,57.40 C322.21,54.16 318.05,54.29 314.76,57.75 C312.12,60.52 310.05,66.00 311.64,66.00 C312.11,66.00 312.56,68.41 312.62,71.34 C312.73,75.91 314.08,79.42 321.97,95.59 C327.03,105.99 331.59,115.18 332.09,116.00 C333.40,118.16 344.06,139.94 345.55,143.50 C346.23,145.15 347.97,148.98 349.40,152.01 C350.83,155.05 352.00,158.68 352.00,160.09 C352.00,163.06 348.64,166.57 344.91,167.49 C342.79,168.02 341.76,167.49 339.16,164.53 C337.34,162.46 336.00,159.82 336.00,158.33 C336.00,156.89 334.73,153.65 333.17,151.11 C331.61,148.57 330.03,144.95 329.65,143.05 C329.28,141.15 328.17,138.67 327.18,137.55 C326.20,136.42 324.32,133.02 323.00,130.00 C321.68,126.97 320.05,123.82 319.38,123.00 C317.52,120.72 302.57,91.28 299.94,84.74 C298.25,80.53 296.41,78.03 293.15,75.49 C287.82,71.34 285.82,71.15 283.15,74.54 C279.83,78.75 279.30,88.70 281.94,96.81 C283.98,103.04 288.00,112.54 290.07,116.00 C292.38,119.86 305.13,146.11 307.07,151.00 C309.37,156.80 309.77,165.70 307.88,169.22 C307.08,170.73 306.07,170.99 302.69,170.61 C300.39,170.34 298.42,170.10 298.33,170.06 C298.24,170.03 297.19,166.96 296.00,163.25 C293.99,156.96 291.83,151.56 289.89,148.00 C275.14,120.86 274.57,120.00 271.40,120.00 C270.15,120.00 268.05,121.34 266.59,123.08 C262.66,127.74 262.97,136.01 267.57,149.80 C269.53,155.69 271.56,160.93 272.07,161.45 C272.58,161.97 273.00,163.15 273.00,164.08 C273.00,165.00 273.61,166.26 274.36,166.89 C275.55,167.87 280.28,180.72 280.48,183.50 C280.56,184.66 278.49,187.00 277.39,187.00 C276.97,187.00 275.66,187.91 274.47,189.03 C272.44,190.93 268.34,190.88 269.52,188.97 C269.80,188.51 269.13,187.86 268.04,187.51 C266.80,187.12 265.57,185.30 264.80,182.72 C263.27,177.62 257.67,166.72 256.36,166.29 C255.42,165.97 248.00,180.88 248.00,183.06 C248.00,184.45 245.40,187.07 244.71,186.38 C244.42,186.09 243.90,186.74 243.55,187.83 C243.21,188.92 242.27,190.07 241.48,190.37 C239.73,191.04 233.29,187.13 232.53,184.94 C231.89,183.11 235.65,171.61 239.22,164.50 C240.60,161.75 243.23,155.45 245.07,150.50 C247.81,143.11 248.40,140.11 248.38,133.74 C248.36,126.58 248.13,125.75 245.49,122.99 C243.91,121.35 241.84,120.00 240.89,120.00 C238.80,120.00 233.00,126.74 233.00,129.17 C233.00,130.11 232.53,131.17 231.96,131.53 C231.38,131.88 230.23,133.89 229.39,135.99 C228.55,138.09 226.99,140.03 225.93,140.31 C224.83,140.60 224.00,141.68 224.00,142.83 C224.00,143.95 223.32,145.53 222.50,146.36 C221.68,147.18 221.00,148.45 220.99,149.18 C220.99,149.91 220.37,151.69 219.61,153.14 C218.86,154.59 217.25,158.97 216.04,162.89 C214.82,166.80 213.53,170.05 213.17,170.10 C204.41,171.43 203.00,170.40 203.00,162.63 C203.00,156.12 207.38,145.19 219.29,121.98 C232.15,96.92 233.63,92.42 232.02,83.18 C230.85,76.45 228.14,72.00 225.21,72.00 C224.41,72.00 222.23,73.35 220.35,75.00 C218.47,76.65 216.53,78.00 216.04,78.00 C215.55,78.00 214.61,79.69 213.94,81.75 C213.27,83.81 211.26,88.43 209.46,92.00 C207.67,95.57 204.36,102.32 202.09,107.00 C199.83,111.68 195.03,120.90 191.43,127.50 C187.83,134.10 184.35,141.19 183.70,143.25 C183.05,145.31 182.22,147.00 181.85,147.00 C180.40,147.00 176.00,156.05 176.00,159.03 C176.00,162.58 171.14,168.00 167.95,168.00 C164.78,168.00 160.68,163.66 160.77,160.42 C160.90,156.14 166.19,144.31 184.01,108.50 C199.04,78.29 199.96,76.12 200.35,69.73 C200.90,60.93 198.54,56.80 192.66,56.22 C189.10,55.88 188.43,56.27 183.17,61.77 C180.05,65.03 177.03,68.32 176.45,69.10 C174.83,71.26 172.69,79.73 173.24,81.82 C173.54,82.95 173.00,84.14 171.87,84.85 C170.84,85.49 170.00,86.69 170.00,87.51 C170.00,88.33 169.57,89.00 169.04,89.00 C168.28,89.00 165.90,95.54 165.76,98.00 C165.74,98.28 164.89,99.09 163.87,99.81 C162.84,100.53 162.00,101.70 162.00,102.41 C162.00,103.12 160.88,104.92 159.50,106.41 C158.12,107.89 157.00,109.38 157.00,109.73 C157.00,110.07 155.47,112.64 153.59,115.43 C149.24,121.91 145.31,128.74 143.90,132.27 C143.29,133.80 141.98,135.47 141.00,136.00 C139.00,137.07 136.51,143.00 138.06,143.00 C138.59,143.00 138.00,144.69 136.76,146.75 C135.51,148.81 133.14,153.30 131.50,156.71 C129.85,160.13 127.76,163.19 126.85,163.50 C125.94,163.81 124.91,165.23 124.55,166.66 C124.19,168.08 123.24,169.90 122.44,170.70 C121.64,171.51 121.04,173.36 121.12,174.83 C121.30,178.24 118.54,184.58 116.54,185.35 C115.69,185.67 115.00,187.02 115.00,188.35 C115.00,189.67 114.32,191.32 113.50,192.00 C112.56,192.78 112.00,194.99 112.00,197.94 C112.00,201.77 111.49,203.12 109.20,205.31 ZM 477.65 476.44 C474.12,479.98 468.69,479.98 466.38,476.46 C465.47,475.06 464.38,472.25 463.96,470.21 C461.43,457.76 460.17,449.97 460.10,446.19 C460.05,443.83 459.58,441.07 459.04,440.08 C458.51,439.09 458.01,434.05 457.94,428.89 C457.79,419.54 459.12,411.95 462.44,403.00 C463.36,400.52 464.81,396.59 465.65,394.25 C466.50,391.91 467.55,390.00 467.98,390.00 C468.42,390.00 469.01,388.54 469.28,386.75 C469.56,384.96 472.27,376.23 475.31,367.35 C484.25,341.18 488.49,318.23 488.38,296.50 C488.31,281.75 487.43,276.78 480.05,249.57 C477.18,238.99 477.08,237.88 476.93,214.57 C476.77,189.03 475.01,171.93 472.22,168.75 C471.38,167.79 469.68,167.00 468.43,167.00 C466.04,167.00 456.00,174.33 456.00,176.08 C456.00,176.65 455.54,176.83 454.98,176.48 C454.41,176.14 454.03,176.22 454.14,176.68 C454.24,177.13 453.75,178.85 453.04,180.50 C452.34,182.15 451.57,185.02 451.34,186.89 C451.11,188.75 450.55,191.00 450.08,191.89 C448.58,194.78 448.02,205.99 447.81,237.75 C447.69,254.94 447.24,269.00 446.80,269.00 C446.36,269.00 446.00,271.19 446.00,273.87 C446.00,276.56 445.29,280.72 444.41,283.12 C443.54,285.53 442.74,287.95 442.62,288.50 C442.51,289.05 441.58,290.85 440.55,292.50 C436.24,299.42 433.98,302.94 428.70,311.01 C425.64,315.70 422.67,320.74 422.11,322.21 C421.55,323.69 419.87,326.83 418.39,329.18 C416.90,331.54 414.02,336.84 411.98,340.98 C408.48,348.08 407.08,351.30 402.09,363.69 C400.94,366.54 400.00,370.88 400.00,373.33 C400.00,376.87 399.40,378.43 397.10,380.89 C393.47,384.78 391.15,384.81 387.54,381.04 C384.84,378.22 384.73,377.76 385.30,371.29 C386.10,362.19 389.55,352.51 398.49,334.31 C406.82,317.37 421.10,293.32 424.07,291.24 C425.13,290.50 426.00,289.16 426.00,288.28 C426.00,287.40 427.30,284.61 428.88,282.09 L 431.77 277.50 L 432.31 239.85 C432.75,209.25 433.13,201.65 434.34,199.31 C435.16,197.73 435.80,194.41 435.76,191.94 C435.68,187.09 438.59,177.00 440.06,177.00 C440.56,177.00 441.26,175.79 441.64,174.32 C444.44,163.16 462.38,151.63 474.20,153.40 C482.57,154.66 488.20,164.32 488.41,177.76 C488.46,181.23 489.00,184.39 489.60,184.79 C491.21,185.82 491.98,197.54 492.08,222.49 C492.15,239.00 492.53,245.33 493.59,247.87 C494.36,249.72 495.00,252.29 495.00,253.56 C495.00,254.84 495.45,256.16 496.00,256.50 C496.55,256.84 497.00,258.16 497.00,259.44 C497.00,261.50 498.25,265.29 500.97,271.50 C502.80,275.68 503.49,284.05 503.34,300.00 C503.18,317.02 502.12,326.23 498.88,338.73 C497.84,342.71 497.00,347.21 497.00,348.74 C497.00,350.44 496.22,352.01 495.00,352.77 C493.66,353.61 493.00,355.10 493.00,357.31 C493.00,359.12 492.57,361.03 492.04,361.56 C491.52,362.08 490.95,364.42 490.79,366.75 C490.63,369.07 489.98,371.17 489.35,371.42 C487.82,372.01 485.04,380.74 485.18,384.52 C485.24,386.18 484.10,389.78 482.65,392.51 C481.19,395.25 480.00,398.17 480.00,399.00 C480.00,399.83 478.38,404.56 476.41,409.51 C474.05,415.41 472.78,420.30 472.69,423.75 C472.62,426.64 472.15,429.00 471.65,429.00 C471.13,429.00 471.01,430.87 471.37,433.25 C471.72,435.59 472.66,441.99 473.46,447.48 C474.32,453.34 475.49,457.89 476.30,458.48 C477.06,459.04 477.97,461.52 478.31,464.00 C478.66,466.48 479.22,469.71 479.57,471.19 C480.07,473.27 479.63,474.46 477.65,476.44 ZM 45.90 474.94 C42.97,478.66 38.49,479.04 35.09,475.87 C33.24,474.15 32.94,473.14 33.52,470.62 C33.92,468.90 34.54,465.47 34.91,463.00 C35.28,460.52 35.98,457.85 36.46,457.06 C36.95,456.27 38.16,450.42 39.14,444.06 C41.63,428.04 40.98,422.71 34.30,404.50 C31.28,396.25 28.64,388.60 28.44,387.50 C27.49,382.36 26.09,378.04 23.65,372.72 C22.19,369.54 21.00,365.83 21.00,364.47 C21.00,363.11 20.55,362.00 20.00,362.00 C19.45,362.00 19.00,360.41 19.00,358.46 C19.00,356.52 18.35,353.93 17.56,352.71 C16.78,351.50 14.72,343.75 12.99,335.50 C7.19,307.84 7.71,278.11 14.23,264.32 C14.80,263.12 15.02,261.51 14.73,260.74 C14.43,259.97 15.55,254.65 17.22,248.92 C20.10,238.97 20.28,237.32 20.99,212.50 C21.43,197.41 22.22,185.32 22.87,183.68 C23.49,182.14 24.00,178.89 24.00,176.48 C24.00,170.76 28.16,159.38 31.46,156.09 C33.78,153.77 34.81,153.50 41.28,153.54 C46.56,153.56 49.82,154.17 53.42,155.81 C59.01,158.34 67.27,164.75 66.53,165.96 C66.25,166.40 66.92,167.90 68.01,169.29 C69.11,170.68 70.00,172.50 70.00,173.34 C70.00,174.17 70.69,175.55 71.53,176.39 C73.96,178.81 76.12,186.04 76.13,191.77 C76.14,194.67 76.78,198.27 77.57,199.77 C78.63,201.82 78.99,206.79 78.99,219.75 C79.00,230.58 79.37,237.00 80.00,237.00 C80.63,237.00 81.00,244.62 81.00,257.85 C81.00,278.45 81.03,278.74 83.47,282.10 C84.84,283.97 86.44,286.62 87.04,288.00 C87.64,289.38 88.93,291.40 89.91,292.50 C91.89,294.74 100.31,308.53 103.14,314.19 C104.15,316.21 105.42,318.14 105.95,318.47 C106.48,318.80 106.65,319.74 106.34,320.56 C105.78,322.02 110.56,330.00 112.00,330.00 C112.40,330.00 112.52,331.04 112.28,332.31 C112.02,333.66 112.50,335.17 113.42,335.93 C114.29,336.65 115.00,338.06 115.00,339.06 C115.00,340.05 115.79,341.12 116.75,341.43 C120.10,342.50 127.40,363.85 127.19,371.95 C127.08,376.49 126.60,377.81 124.33,379.92 C120.93,383.07 119.21,383.08 115.86,379.94 C113.79,378.01 113.11,376.27 112.76,371.98 C111.93,361.88 97.49,332.62 78.49,302.52 C73.29,294.28 68.29,285.51 67.39,283.02 C66.02,279.25 65.62,271.70 64.99,237.50 C64.31,200.24 64.05,195.93 62.21,190.24 C57.65,176.21 49.96,167.00 42.79,167.00 C37.18,167.00 35.66,176.47 35.38,212.99 C35.16,243.21 35.34,241.77 29.39,261.52 C22.89,283.08 22.73,305.93 28.85,338.50 C30.52,347.40 39.95,376.18 47.14,394.30 C49.28,399.69 51.21,405.54 51.44,407.30 C51.66,409.06 52.32,412.52 52.89,415.00 C54.09,420.14 54.83,438.00 53.85,438.00 C52.69,438.00 51.00,444.17 50.99,448.40 C50.99,450.65 50.51,454.21 49.93,456.30 C49.35,458.39 48.75,462.76 48.59,466.00 C48.37,470.43 47.70,472.66 45.90,474.94 ZM 179.75 477.25 C179.89,477.66 178.65,478.00 177.00,478.00 C175.35,478.00 174.00,477.62 174.00,477.16 C174.00,476.70 172.88,475.81 171.50,475.18 C169.68,474.35 169.00,473.26 169.00,471.19 C169.00,469.62 169.29,468.04 169.65,467.69 C170.00,467.33 171.08,464.89 172.03,462.27 C176.87,448.99 180.83,441.32 194.84,418.00 C196.00,416.08 198.01,412.24 199.32,409.48 C200.62,406.71 202.47,403.68 203.42,402.73 C206.02,400.12 210.67,400.54 213.55,403.65 C216.32,406.64 216.62,409.36 214.55,413.00 C213.77,414.38 210.87,420.00 208.10,425.50 C205.34,431.00 200.99,438.65 198.45,442.50 C192.05,452.17 187.37,460.98 185.36,467.14 C184.42,470.00 182.72,473.28 181.58,474.42 C180.44,475.56 179.61,476.84 179.75,477.25 ZM 338.00 477.16 C338.00,477.62 336.58,478.00 334.83,478.00 C333.09,478.00 331.92,477.75 332.23,477.44 C332.54,477.13 331.78,475.87 330.55,474.65 C329.33,473.42 328.03,470.63 327.67,468.46 C327.07,464.81 324.47,459.92 308.68,432.79 C301.31,420.12 297.00,410.91 297.00,407.84 C297.00,404.49 300.47,401.00 303.79,401.02 C304.79,401.02 305.58,401.02 306.32,401.22 C309.09,401.99 311.05,405.65 320.68,423.40 C326.89,434.85 327.36,435.63 329.34,437.82 C330.25,438.83 331.00,440.12 331.00,440.69 C331.00,441.26 331.89,442.86 332.97,444.23 C334.05,445.61 334.71,446.96 334.43,447.24 C333.43,448.24 337.16,455.77 339.77,458.05 C341.23,459.32 341.96,460.51 341.39,460.70 C340.20,461.10 340.79,466.75 342.12,467.57 C342.60,467.87 343.00,469.45 343.00,471.08 C343.00,473.27 342.35,474.34 340.50,475.18 C339.12,475.81 338.00,476.70 338.00,477.16 Z" fill="rgb(47,202,113)"/>
<path d="M 401.64 203.17 C399.96,200.40 398.26,196.26 396.22,190.34 C392.10,178.33 380.78,154.50 374.22,144.00 C346.55,99.74 337.30,82.69 336.32,74.17 C335.79,69.59 335.01,68.08 330.87,63.55 C325.21,57.35 321.21,55.28 318.10,56.95 C314.73,58.75 312.65,63.90 312.65,70.50 C312.65,71.43 312.67,72.26 312.74,73.08 C312.67,72.50 312.64,71.93 312.62,71.34 C312.56,68.41 312.11,66.00 311.64,66.00 C310.05,66.00 312.12,60.52 314.76,57.75 C318.05,54.29 322.21,54.16 326.07,57.40 C327.64,58.73 329.28,59.96 329.71,60.15 C330.15,60.34 331.78,62.38 333.34,64.68 C336.22,68.93 337.80,73.50 338.70,80.21 C338.98,82.25 339.83,84.45 340.60,85.08 C341.37,85.72 342.00,86.86 342.00,87.62 C342.00,88.38 342.43,89.00 342.96,89.00 C343.49,89.00 344.39,90.74 344.96,92.87 C345.54,95.00 346.91,97.88 348.00,99.28 C349.10,100.67 350.00,102.24 350.00,102.76 C350.00,103.28 351.12,104.92 352.50,106.41 C353.88,107.89 355.00,109.50 355.00,109.98 C355.00,110.46 355.59,111.45 356.31,112.18 C357.03,112.91 359.29,116.43 361.33,120.00 C363.37,123.57 365.47,127.18 366.00,128.00 C366.53,128.82 367.63,130.96 368.43,132.75 C369.24,134.54 370.36,136.00 370.91,136.00 C372.19,136.00 373.76,138.87 374.39,142.38 C374.66,143.86 375.76,146.52 376.83,148.29 C377.90,150.05 380.22,154.31 381.99,157.75 C383.76,161.19 385.61,164.00 386.10,164.00 C386.60,164.00 387.00,164.61 387.00,165.37 C387.00,166.12 387.88,167.85 388.96,169.22 C390.04,170.59 391.10,173.24 391.33,175.11 C391.82,179.19 393.98,184.20 395.73,185.30 C396.43,185.74 397.00,187.15 397.00,188.43 C397.00,189.71 397.67,191.32 398.50,192.00 C399.33,192.68 400.00,194.79 400.00,196.67 C400.00,199.03 400.62,201.30 401.64,203.17 ZM 45.90 474.94 C47.70,472.66 48.37,470.43 48.59,466.00 C48.75,462.76 49.35,458.39 49.93,456.30 C50.51,454.21 50.99,450.65 50.99,448.40 C51.00,444.17 52.69,438.00 53.85,438.00 C54.83,438.00 54.09,420.14 52.89,415.00 C52.32,412.52 51.66,409.06 51.44,407.30 C51.26,405.93 50.04,402.05 48.49,397.84 C55.93,417.15 56.21,418.91 55.62,428.50 C55.06,437.66 52.47,454.02 49.41,467.76 C48.30,472.75 46.92,476.17 45.40,477.69 C42.72,480.37 39.37,480.65 36.23,478.45 C31.83,475.37 31.74,473.98 34.94,458.12 C36.59,449.93 38.48,438.12 39.13,431.87 L 39.97 423.75 C40.91,429.88 40.48,435.41 39.14,444.06 C38.16,450.42 36.95,456.27 36.46,457.06 C35.98,457.85 35.28,460.52 34.91,463.00 C34.54,465.47 33.92,468.90 33.52,470.62 C32.94,473.14 33.24,474.15 35.09,475.87 C38.49,479.04 42.97,478.66 45.90,474.94 ZM 111.82 200.83 C111.95,200.03 112.00,199.10 112.00,197.94 C112.00,194.99 112.56,192.78 113.50,192.00 C114.32,191.32 115.00,189.67 115.00,188.35 C115.00,187.02 115.69,185.67 116.54,185.35 C118.54,184.58 121.30,178.24 121.12,174.83 C121.04,173.36 121.64,171.51 122.44,170.70 C123.24,169.90 124.19,168.08 124.55,166.66 C124.91,165.23 125.94,163.81 126.85,163.50 C127.76,163.19 129.85,160.13 131.50,156.71 C133.14,153.30 135.51,148.81 136.76,146.75 C138.00,144.69 138.59,143.00 138.06,143.00 C136.51,143.00 139.00,137.07 141.00,136.00 C141.98,135.47 143.29,133.80 143.90,132.27 C145.31,128.74 149.24,121.91 153.59,115.43 C155.47,112.64 157.00,110.07 157.00,109.73 C157.00,109.38 158.12,107.89 159.50,106.41 C160.88,104.92 162.00,103.12 162.00,102.41 C162.00,101.70 162.84,100.53 163.87,99.81 C164.89,99.09 165.74,98.28 165.76,98.00 C165.90,95.54 168.28,89.00 169.04,89.00 C169.57,89.00 170.00,88.33 170.00,87.51 C170.00,86.69 170.84,85.49 171.87,84.85 C173.00,84.14 173.54,82.95 173.24,81.82 C172.69,79.73 174.83,71.26 176.45,69.10 C176.66,68.81 177.19,68.20 177.93,67.38 C176.82,69.35 176.36,71.45 175.88,74.86 C174.98,81.40 169.58,92.86 160.51,107.50 C135.84,147.34 123.18,171.11 115.77,191.50 C114.55,194.84 113.11,198.22 111.82,200.83 ZM 32.47 251.08 C35.28,240.90 35.21,236.62 35.38,212.99 C35.66,176.47 37.18,167.00 42.79,167.00 C49.42,167.00 56.50,174.87 61.13,187.15 C56.85,176.37 49.96,169.00 43.89,169.00 C41.48,169.00 40.93,169.54 40.08,172.75 C38.10,180.25 36.93,193.96 36.39,216.00 C35.93,234.82 35.69,239.53 32.47,251.08 ZM 485.57 163.37 C483.08,157.78 479.11,154.14 474.20,153.40 C462.38,151.63 444.44,163.16 441.64,174.32 C441.26,175.79 440.56,177.00 440.06,177.00 C438.59,177.00 435.68,187.09 435.76,191.94 C435.80,194.41 435.16,197.73 434.34,199.31 C433.13,201.65 432.75,209.25 432.31,239.85 L 432.00 260.96 L 432.01 240.09 C432.01,219.34 432.47,199.59 433.04,196.00 C437.06,170.49 450.93,154.00 469.78,152.29 C475.68,151.75 475.83,151.80 480.13,155.77 C482.70,158.15 484.21,160.18 485.57,163.37 ZM 80.73 242.38 C80.56,238.87 80.31,237.00 80.00,237.00 C79.37,237.00 79.00,230.58 78.99,219.75 C78.99,206.79 78.63,201.82 77.57,199.77 C76.78,198.27 76.14,194.67 76.13,191.77 C76.12,186.04 73.96,178.81 71.53,176.39 C70.69,175.55 70.00,174.17 70.00,173.34 C70.00,172.50 69.11,170.68 68.01,169.29 C66.92,167.90 66.25,166.40 66.53,165.96 C66.61,165.83 66.58,165.64 66.47,165.40 C71.33,171.00 75.14,178.45 77.61,187.50 C79.08,192.88 80.28,214.68 80.73,242.38 ZM 248.18 394.96 C244.71,392.81 240.18,390.59 238.12,390.03 C236.06,389.48 233.31,387.89 232.01,386.51 C230.71,385.13 229.04,384.00 228.29,384.00 C227.54,384.00 225.06,382.15 222.78,379.90 C220.50,377.64 217.01,374.77 215.02,373.51 C213.03,372.26 207.99,368.48 203.80,365.12 C199.62,361.75 195.91,359.00 195.56,359.00 C194.28,359.00 184.40,351.11 180.04,346.61 C177.59,344.07 174.97,342.00 174.22,342.00 C172.22,342.00 170.00,339.44 170.00,337.12 C170.00,336.23 169.64,335.24 169.14,334.65 C171.52,337.02 173.95,339.31 176.38,341.50 C190.85,354.50 208.14,368.88 213.50,372.38 C220.81,377.14 242.09,390.92 248.75,395.19 C251.91,397.22 255.18,398.90 256.00,398.94 C256.01,398.94 256.01,398.94 256.02,398.94 C255.98,398.94 255.94,398.94 255.91,398.94 C255.14,398.91 251.66,397.12 248.18,394.96 ZM 450.85 189.56 C451.05,188.70 451.23,187.75 451.34,186.89 C451.57,185.02 452.34,182.15 453.04,180.50 C453.75,178.85 454.24,177.13 454.14,176.68 C454.03,176.22 454.41,176.14 454.98,176.48 C455.54,176.83 456.00,176.65 456.00,176.08 C456.00,174.33 466.04,167.00 468.43,167.00 C469.68,167.00 471.38,167.79 472.22,168.75 C475.01,171.93 476.77,189.03 476.93,214.57 C477.08,237.88 477.18,238.99 480.05,249.57 C481.67,255.52 482.97,260.40 484.02,264.56 C482.96,260.38 481.65,255.47 480.02,249.50 C477.40,239.89 477.02,236.83 477.01,225.27 C477.00,210.10 474.59,181.88 472.68,174.50 C471.04,168.17 468.37,167.50 462.28,171.91 C457.53,175.35 453.35,181.98 450.85,189.56 ZM 228.26 138.13 C224.92,145.06 220.23,156.21 216.62,166.10 C215.54,169.08 214.06,171.11 212.43,171.85 C208.77,173.52 207.51,173.30 204.08,170.41 C200.66,167.54 200.02,163.41 202.30,159.00 C203.01,157.62 204.66,153.57 205.97,150.00 C206.50,148.54 207.79,145.63 209.54,141.90 C204.88,152.19 203.00,158.36 203.00,162.63 C203.00,170.40 204.41,171.43 213.17,170.10 C213.53,170.05 214.82,166.80 216.04,162.89 C217.25,158.97 218.86,154.59 219.61,153.14 C220.37,151.69 220.99,149.91 220.99,149.18 C221.00,148.45 221.68,147.18 222.50,146.36 C223.32,145.53 224.00,143.95 224.00,142.83 C224.00,141.68 224.83,140.60 225.93,140.31 C226.61,140.13 227.49,139.27 228.26,138.13 ZM 114.92 96.60 C114.63,97.14 114.35,97.64 114.15,98.00 C112.33,101.17 97.74,131.49 94.51,138.81 C92.00,144.49 89.26,149.98 87.11,153.75 C88.81,150.51 90.45,146.53 90.68,144.58 C90.87,142.98 92.59,138.40 94.51,134.41 C96.43,130.42 98.00,126.70 98.00,126.15 C98.00,125.60 98.58,124.55 99.29,123.82 C101.28,121.78 105.66,112.87 106.45,109.28 C106.83,107.50 108.46,104.95 110.07,103.59 C111.68,102.24 113.00,100.45 113.00,99.62 C113.00,98.80 113.48,97.82 114.06,97.46 C114.31,97.31 114.61,97.00 114.92,96.60 ZM 259.97 397.25 C264.22,394.94 272.05,390.05 285.20,381.55 C305.02,368.74 318.32,358.23 337.12,340.51 C345.48,332.63 352.69,324.97 358.78,317.47 C356.29,320.60 353.61,323.79 350.72,327.04 C346.07,332.29 341.96,337.56 341.58,338.74 C341.21,339.93 339.91,341.20 338.70,341.57 C337.49,341.94 333.29,345.22 329.38,348.87 C323.27,354.56 303.24,369.90 295.07,375.16 C293.66,376.07 290.73,378.43 288.57,380.41 C286.41,382.38 284.11,384.00 283.46,384.00 C282.82,384.00 280.99,385.24 279.40,386.75 C277.80,388.26 275.75,389.54 274.83,389.61 C273.91,389.67 269.59,391.81 265.24,394.36 C263.37,395.46 261.52,396.47 259.97,397.25 ZM 179.75 477.25 C179.61,476.84 180.44,475.56 181.58,474.42 C182.72,473.28 184.42,470.00 185.36,467.14 C187.37,460.98 192.05,452.17 198.45,442.50 C198.53,442.37 198.62,442.24 198.71,442.10 C198.28,442.78 197.88,443.42 197.49,444.00 C190.46,454.76 185.27,465.45 184.38,471.05 C183.98,473.53 182.69,476.40 181.38,477.71 C178.20,480.90 174.47,480.63 170.79,476.95 C168.03,474.18 167.80,473.47 168.36,469.41 C169.05,464.38 174.23,451.27 176.92,447.78 C177.85,446.57 181.56,440.55 185.29,434.20 C178.57,445.99 175.53,452.66 172.03,462.27 C171.08,464.89 170.00,467.33 169.65,467.69 C169.29,468.04 169.00,469.62 169.00,471.19 C169.00,473.26 169.68,474.35 171.50,475.18 C172.88,475.81 174.00,476.70 174.00,477.16 C174.00,477.62 175.35,478.00 177.00,478.00 C178.65,478.00 179.89,477.66 179.75,477.25 ZM 307.49 152.17 C307.71,152.67 307.89,153.12 308.04,153.50 C312.17,163.97 312.27,167.51 308.54,170.72 C306.34,172.61 304.98,173.05 302.68,172.59 C298.55,171.76 297.37,170.56 295.39,165.17 C290.61,152.13 286.90,143.08 283.22,135.77 C285.05,139.09 287.24,143.12 289.89,148.00 C291.83,151.56 293.99,156.96 296.00,163.25 C297.19,166.96 298.24,170.03 298.33,170.06 C298.42,170.10 300.39,170.34 302.69,170.61 C306.07,170.99 307.08,170.73 307.88,169.22 C309.64,165.93 309.41,157.94 307.49,152.17 ZM 338.35 163.52 C336.61,161.34 334.77,158.26 334.08,156.34 C333.32,154.23 325.86,138.55 317.51,121.50 C312.55,111.36 307.75,101.41 304.40,94.33 C309.82,105.46 318.04,121.35 319.38,123.00 C320.05,123.82 321.68,126.97 323.00,130.00 C324.32,133.02 326.20,136.42 327.18,137.55 C328.17,138.67 329.28,141.15 329.65,143.05 C330.03,144.95 331.61,148.57 333.17,151.11 C334.73,153.65 336.00,156.89 336.00,158.33 C336.00,159.59 336.96,161.66 338.35,163.52 ZM 112.00 374.82 C112.00,367.13 107.01,353.39 97.82,335.73 C106.56,352.24 112.25,365.75 112.76,371.98 C113.11,376.27 113.79,378.01 115.86,379.94 C119.21,383.08 120.93,383.07 124.33,379.92 C126.60,377.81 127.08,376.49 127.19,371.95 C127.29,368.32 125.87,362.03 123.98,356.09 C124.16,356.60 124.33,357.07 124.47,357.50 C125.91,361.90 127.36,368.50 127.68,372.16 C128.24,378.38 128.10,378.99 125.68,381.41 C122.24,384.85 118.58,384.74 114.92,381.08 C112.86,379.02 112.00,377.17 112.00,374.82 ZM 501.46 272.81 C501.30,272.33 501.14,271.90 500.97,271.50 C498.25,265.29 497.00,261.50 497.00,259.44 C497.00,258.16 496.55,256.84 496.00,256.50 C495.45,256.16 495.00,254.84 495.00,253.56 C495.00,252.29 494.36,249.72 493.59,247.87 C492.53,245.33 492.15,239.00 492.08,222.49 C492.07,219.82 492.05,217.30 492.03,214.93 C492.77,238.18 492.95,239.16 496.30,251.00 C498.24,257.88 500.34,266.42 500.96,270.00 C501.11,270.85 501.28,271.80 501.46,272.81 ZM 150.80 181.47 C153.31,180.36 155.64,179.34 156.50,178.96 C162.63,176.25 177.19,175.31 187.27,176.96 C191.96,177.73 198.36,179.83 204.66,182.49 C199.91,180.66 195.14,179.33 191.00,178.77 C177.19,176.88 170.02,176.76 167.56,178.37 C166.08,179.34 163.27,179.83 159.87,179.71 C157.15,179.62 154.04,180.26 150.80,181.47 ZM 477.59 460.88 C477.20,459.71 476.73,458.80 476.30,458.48 C475.49,457.89 474.32,453.34 473.46,447.48 C472.66,441.99 471.72,435.59 471.37,433.25 C471.01,430.87 471.13,429.00 471.65,429.00 C472.15,429.00 472.62,426.64 472.69,423.75 C472.71,422.82 472.82,421.79 473.02,420.67 C472.84,422.05 472.78,423.45 472.79,425.05 C472.80,430.08 475.37,448.67 477.59,460.88 ZM 463.00 401.49 C462.80,402.03 462.61,402.54 462.44,403.00 C459.12,411.95 457.79,419.54 457.94,428.89 C458.01,434.05 458.51,439.09 459.04,440.08 C459.58,441.07 460.05,443.83 460.10,446.19 C460.16,449.22 460.98,454.82 462.60,463.32 C460.43,454.67 458.78,445.82 457.41,435.50 C455.70,422.49 456.26,416.69 460.03,408.50 C460.92,406.57 461.98,404.05 463.00,401.49 ZM 17.11 355.50 C14.41,343.82 12.56,334.58 11.31,326.38 C11.80,329.43 12.35,332.48 12.99,335.50 C14.72,343.75 16.78,351.50 17.56,352.71 C18.35,353.93 19.00,356.52 19.00,358.46 C19.00,360.41 19.45,362.00 20.00,362.00 C20.55,362.00 21.00,363.11 21.00,364.47 C21.00,365.83 22.19,369.54 23.65,372.72 C26.09,378.04 27.49,382.36 28.44,387.50 C28.55,388.14 29.49,390.97 30.84,394.84 C29.72,392.02 28.88,390.03 28.55,389.50 C26.99,387.00 18.66,362.24 17.11,355.50 ZM 362.02 181.57 C357.13,179.40 355.05,178.98 351.91,179.52 C349.09,179.99 346.88,179.70 344.39,178.52 C340.67,176.75 334.52,176.82 321.00,178.80 C317.50,179.32 312.77,180.72 308.09,182.47 C311.10,181.19 314.13,180.01 316.79,179.10 C330.24,174.55 349.29,175.40 361.03,181.09 C361.37,181.25 361.70,181.41 362.02,181.57 ZM 484.40 388.38 C484.91,386.83 485.21,385.40 485.18,384.52 C485.04,380.74 487.82,372.01 489.35,371.42 C489.98,371.17 490.63,369.07 490.79,366.75 C490.95,364.42 491.52,362.08 492.04,361.56 C492.57,361.03 493.00,359.12 493.00,357.31 C493.00,355.10 493.66,353.61 495.00,352.77 C495.68,352.34 496.23,351.66 496.58,350.85 C494.89,358.62 488.58,378.00 484.40,388.38 ZM 338.00 477.16 C338.00,476.70 339.12,475.81 340.50,475.18 C342.35,474.34 343.00,473.27 343.00,471.08 C343.00,469.45 342.60,467.87 342.12,467.57 C340.79,466.75 340.20,461.10 341.39,460.70 C341.41,460.70 341.42,460.69 341.44,460.68 C342.70,464.16 343.59,467.41 343.79,469.68 C344.18,474.23 343.92,475.17 341.66,477.43 C336.27,482.82 329.35,479.12 327.92,470.06 C327.34,466.40 326.26,463.53 320.04,452.49 C325.91,462.88 327.26,465.96 327.67,468.46 C328.03,470.63 329.33,473.42 330.55,474.65 C331.78,475.87 332.54,477.13 332.23,477.44 C331.92,477.75 333.09,478.00 334.83,478.00 C336.58,478.00 338.00,477.62 338.00,477.16 ZM 121.95 295.16 C120.55,292.07 119.31,289.05 118.42,286.51 C116.68,281.55 114.99,276.83 114.66,276.00 C113.46,273.02 112.01,261.36 112.01,254.67 C112.00,248.78 114.92,228.51 116.64,222.50 C118.09,217.45 119.95,212.74 122.19,208.41 C116.57,219.59 114.04,231.43 113.32,248.55 C112.84,260.24 113.00,263.11 114.33,265.67 C115.33,267.61 115.71,270.00 115.36,272.18 C114.78,275.71 117.92,285.70 121.95,295.16 ZM 280.33 184.22 C280.40,184.83 280.42,185.33 280.39,185.69 C279.76,191.65 271.98,194.07 267.59,189.68 C266.31,188.40 264.06,183.62 262.58,179.06 C261.55,175.88 260.54,173.18 259.61,171.07 C261.62,174.77 263.90,179.74 264.80,182.72 C265.57,185.30 266.80,187.12 268.04,187.51 C269.13,187.86 269.80,188.51 269.52,188.97 C268.34,190.88 272.44,190.93 274.47,189.03 C275.66,187.91 276.97,187.00 277.39,187.00 C278.29,187.00 279.84,185.43 280.33,184.22 ZM 437.63 297.17 C438.53,295.74 439.47,294.23 440.55,292.50 C441.58,290.85 442.51,289.05 442.62,288.50 C442.74,287.95 443.54,285.53 444.41,283.12 C445.29,280.72 446.00,276.56 446.00,273.87 C446.00,271.19 446.36,269.00 446.80,269.00 C447.24,269.00 447.69,254.94 447.81,237.75 C447.90,224.49 448.05,214.81 448.30,207.82 C448.09,216.11 447.92,229.32 447.87,243.00 C447.80,263.62 447.32,281.62 446.81,282.99 C446.29,284.36 444.53,287.28 442.89,289.49 C441.50,291.36 439.31,294.56 437.63,297.17 ZM 388.86 298.56 C396.50,282.45 397.84,277.91 396.73,272.29 C396.11,269.16 396.29,267.33 397.44,265.12 C398.56,262.96 399.00,258.84 399.07,250.10 C399.10,246.27 399.05,242.72 398.95,240.33 L 398.98 240.50 C401.48,255.37 399.15,275.96 393.56,288.50 C391.92,292.17 390.38,295.48 388.86,298.56 ZM 246.07 77.09 C247.99,83.72 248.44,91.22 246.95,98.23 C245.75,103.89 245.79,104.46 247.45,105.44 C248.00,105.76 248.98,106.37 250.06,107.06 C248.57,106.23 247.10,105.56 246.23,105.34 C244.07,104.80 243.88,104.35 244.42,101.12 C244.76,99.13 245.30,94.80 245.64,91.50 C245.97,88.20 246.58,85.05 246.99,84.50 C247.41,83.95 247.39,82.60 246.95,81.50 C246.52,80.43 246.13,78.47 246.07,77.09 ZM 64.47 213.12 C64.64,219.15 64.80,227.02 64.99,237.50 C65.62,271.70 66.02,279.25 67.39,283.02 C68.29,285.51 73.29,294.28 78.49,302.52 C80.15,305.15 81.77,307.77 83.35,310.37 C80.89,306.52 77.94,302.07 74.00,296.19 L 65.50 283.50 L 64.91 240.00 C64.75,228.24 64.62,219.60 64.47,213.12 ZM 26.55 165.23 C25.07,169.24 24.00,173.59 24.00,176.48 C24.00,178.89 23.49,182.14 22.87,183.68 C22.22,185.32 21.43,197.41 20.99,212.50 C20.28,237.32 20.10,238.97 17.22,248.92 C15.55,254.65 14.43,259.97 14.73,260.74 C15.02,261.51 14.80,263.12 14.23,264.32 C11.29,270.54 9.57,280.00 9.10,291.06 C9.42,277.51 11.53,267.41 17.07,249.00 C20.16,238.70 20.24,237.96 21.02,210.25 C21.46,194.72 22.12,180.23 22.49,178.07 C23.06,174.66 24.71,169.66 26.55,165.23 ZM 251.72 173.96 C249.80,178.11 248.00,182.53 248.00,183.54 C248.00,185.95 245.26,190.69 243.46,191.38 C238.67,193.22 232.00,189.86 232.00,185.60 C232.00,184.08 233.08,180.19 234.56,175.91 C233.10,180.25 232.19,183.97 232.53,184.94 C233.29,187.13 239.73,191.04 241.48,190.37 C242.27,190.07 243.21,188.92 243.55,187.83 C243.90,186.74 244.42,186.09 244.71,186.38 C245.40,187.07 248.00,184.45 248.00,183.06 C248.00,181.99 249.79,177.86 251.72,173.96 ZM 96.69 198.89 C97.01,196.16 98.68,191.75 102.57,182.00 C110.60,161.84 127.14,130.59 140.40,110.50 C140.64,110.13 140.90,109.73 141.17,109.31 C140.57,110.26 140.00,111.16 139.46,112.00 C132.04,123.47 123.00,139.57 123.00,141.31 C123.00,142.24 122.61,143.00 122.12,143.00 C121.64,143.00 119.56,146.21 117.50,150.14 C115.43,154.06 114.37,156.89 115.12,156.43 C115.99,155.90 115.85,156.50 114.74,158.04 C113.77,159.39 112.71,161.18 112.40,162.00 C110.29,167.54 108.60,171.00 107.99,171.00 C106.89,171.00 98.89,191.01 99.55,192.08 C99.88,192.61 99.19,194.58 98.02,196.47 C97.38,197.51 96.94,198.26 96.69,198.89 ZM 118.87 343.78 C118.08,342.47 117.35,341.62 116.75,341.43 C115.79,341.12 115.00,340.05 115.00,339.06 C115.00,338.06 114.29,336.65 113.42,335.93 C112.50,335.17 112.02,333.66 112.28,332.31 C112.52,331.04 112.40,330.00 112.00,330.00 C110.56,330.00 105.78,322.02 106.34,320.56 C106.65,319.74 106.48,318.80 105.95,318.47 C105.42,318.14 104.15,316.21 103.14,314.19 C103.11,314.13 103.08,314.08 103.06,314.02 C103.91,315.60 105.20,317.52 106.09,318.51 C107.90,320.53 114.05,332.96 118.87,343.78 ZM 396.93 153.38 C401.25,161.80 405.49,170.51 407.20,174.65 C406.85,174.14 406.40,173.64 405.92,173.24 C403.75,171.43 400.00,164.91 400.00,162.95 C400.00,162.32 399.09,160.65 397.97,159.24 C396.65,157.56 396.28,156.32 396.92,155.68 C397.28,155.32 397.25,154.47 396.93,153.38 ZM 266.19 105.41 C266.82,104.44 266.59,102.21 265.54,98.14 C263.51,90.33 263.60,87.13 266.05,78.07 C266.26,77.28 266.49,76.51 266.73,75.77 C265.68,79.53 265.21,83.67 265.47,88.00 C265.68,91.57 266.34,95.77 266.93,97.32 C268.57,101.63 268.31,104.42 266.19,105.41 ZM 162.13 36.03 C165.25,37.92 168.07,40.72 170.28,44.29 C173.11,48.91 173.31,49.03 175.36,47.52 C177.04,46.28 178.75,45.22 180.48,44.34 C178.85,45.21 177.23,46.25 175.65,47.45 C172.49,49.86 172.23,49.91 170.77,48.25 C169.93,47.29 168.29,44.63 167.14,42.34 C165.74,39.54 164.12,37.48 162.13,36.03 ZM 175.58 161.04 C175.85,160.34 176.00,159.65 176.00,159.03 C176.00,156.05 180.40,147.00 181.85,147.00 C182.07,147.00 182.45,146.40 182.86,145.48 C180.58,151.84 178.07,157.17 175.58,161.04 ZM 170.50 357.76 C169.89,357.23 169.29,356.71 168.70,356.18 C156.98,345.79 135.41,321.04 134.07,316.57 C134.51,317.51 137.09,321.17 140.18,325.23 C145.46,332.17 149.97,336.98 162.00,348.50 C163.15,349.60 165.51,352.24 167.25,354.36 C168.01,355.30 169.11,356.44 170.50,357.76 ZM 340.85 459.12 C340.56,458.79 340.20,458.42 339.77,458.05 C337.16,455.77 333.43,448.24 334.43,447.24 C334.61,447.06 334.39,446.42 333.92,445.62 C336.31,448.91 338.91,454.13 340.85,459.12 ZM 324.01 372.46 C326.43,370.50 329.04,368.36 331.96,365.94 C340.75,358.66 347.70,352.32 347.41,351.86 C346.84,350.93 350.28,347.34 354.00,345.00 C355.54,344.03 357.54,342.24 359.81,339.88 C359.63,340.08 359.45,340.29 359.27,340.50 C351.64,349.29 338.92,360.74 324.01,372.46 ZM 490.99 189.92 C490.63,186.83 490.17,185.15 489.60,184.79 C489.00,184.39 488.46,181.23 488.41,177.76 C488.34,173.53 487.74,169.67 486.68,166.32 C486.72,166.43 486.75,166.54 486.79,166.65 C489.15,173.72 490.25,178.84 490.99,189.92 ZM 193.77 56.38 C198.84,57.36 200.86,61.51 200.35,69.73 C200.27,71.13 200.16,72.33 199.88,73.66 C200.54,70.08 199.99,67.50 198.93,63.69 C197.78,59.54 196.05,57.10 193.77,56.38 ZM 428.68 282.41 C427.19,284.85 426.00,287.44 426.00,288.28 C426.00,289.16 425.13,290.50 424.07,291.24 C421.78,292.84 412.76,307.53 404.92,321.94 C408.01,316.18 411.14,310.63 413.98,305.97 C418.39,298.74 422.00,292.62 422.00,292.37 C422.00,292.13 424.25,288.72 427.00,284.81 ZM 502.92 313.54 C503.16,309.53 503.29,305.12 503.34,300.00 C503.43,291.30 503.26,284.86 502.79,280.12 C502.93,280.91 503.07,281.65 503.19,282.28 C504.39,288.59 504.14,300.99 502.92,313.54 ZM 385.21 132.33 C385.67,133.06 386.14,133.79 386.59,134.50 C388.19,136.97 390.88,141.83 393.83,147.41 C393.03,146.31 392.17,145.34 391.33,144.69 C390.00,143.64 389.03,142.05 389.18,141.14 C389.33,140.24 387.89,136.86 385.98,133.63 C385.73,133.22 385.48,132.78 385.21,132.33 ZM 421.70 109.92 C423.95,114.36 425.98,118.46 427.57,121.80 C426.48,119.94 425.44,118.64 424.74,118.42 C423.57,118.04 423.04,116.97 423.16,115.18 C423.22,114.22 422.63,112.18 421.70,109.92 ZM 471.65 378.46 C470.35,382.60 469.44,385.75 469.28,386.75 C469.01,388.54 468.42,390.00 467.98,390.00 C467.65,390.00 466.97,391.10 466.29,392.64 C466.73,391.31 467.00,390.36 467.00,390.04 C467.00,389.42 467.85,387.25 468.89,385.21 C469.60,383.80 470.56,381.43 471.65,378.46 ZM 261.88 413.75 C257.09,416.73 255.51,416.60 249.00,412.69 C246.27,411.05 243.43,409.42 242.30,408.84 C242.37,408.87 242.43,408.90 242.50,408.93 C243.60,409.45 246.25,410.97 248.40,412.30 C252.64,414.95 258.50,415.45 262.14,413.59 ZM 81.31 130.44 C84.72,122.59 88.52,114.36 91.35,109.00 C92.05,107.68 92.86,106.13 93.73,104.48 C93.27,105.37 92.80,106.30 92.32,107.25 C90.56,110.69 89.10,114.35 89.07,115.39 C89.03,116.43 88.33,117.78 87.50,118.39 C86.66,119.01 84.07,124.25 81.31,130.44 ZM 413.32 190.74 C414.13,193.05 414.86,195.34 415.35,197.16 C415.25,197.06 415.14,197.00 415.04,197.00 C413.51,197.00 411.49,192.67 412.81,192.23 C413.30,192.07 413.51,191.69 413.32,190.74 ZM 241.86 408.62 C232.13,404.07 213.82,391.81 196.08,378.40 C212.82,390.82 232.17,403.87 241.86,408.62 ZM 371.98 325.25 C377.27,318.20 382.46,310.45 386.09,303.94 C382.11,311.34 377.89,317.70 371.98,325.25 ZM 168.89 334.40 C168.84,334.36 168.80,334.33 168.75,334.30 C167.10,333.24 162.04,327.68 156.83,321.37 C160.60,325.79 164.67,330.20 168.89,334.40 ZM 283.35 74.29 C281.93,76.32 280.88,79.57 280.45,83.59 C280.37,84.35 280.31,85.05 280.26,85.70 C280.30,81.07 281.29,76.90 283.15,74.54 C283.21,74.45 283.28,74.37 283.35,74.29 ZM 185.96 58.93 C188.60,56.37 189.67,56.00 191.99,56.16 C190.23,56.26 188.21,57.18 185.96,58.93 ZM 120.14 60.20 C127.51,49.78 139.14,37.69 144.62,34.94 C141.57,36.62 138.21,39.58 133.48,44.36 C129.22,48.67 123.67,55.28 120.14,60.20 ZM 394.11 216.89 C393.16,214.40 391.94,211.71 390.35,208.50 C388.07,203.90 385.69,200.03 382.99,196.69 C384.70,198.64 386.12,200.53 386.98,202.08 C390.21,207.94 392.51,212.66 394.11,216.89 ZM 477.65 476.44 C478.33,475.76 478.83,475.17 479.17,474.61 C478.65,476.05 477.62,477.13 476.04,477.98 C475.64,478.19 475.06,478.39 474.40,478.56 C475.56,478.12 476.68,477.42 477.65,476.44 ZM 486.32 323.82 C484.69,334.59 482.08,345.80 478.45,357.66 C480.54,350.66 482.37,343.88 483.34,339.27 C484.61,333.25 485.59,328.27 486.32,323.82 ZM 293.78 76.00 C296.34,78.11 297.97,80.28 299.41,83.50 C298.08,80.83 295.99,78.12 293.78,76.00 ZM 54.51 156.33 C57.61,157.73 60.50,159.63 63.15,162.01 C60.71,160.03 57.38,157.79 54.51,156.33 ZM 373.93 188.18 C371.39,186.36 368.57,184.71 365.39,183.14 C366.56,183.67 367.35,184.00 367.47,184.00 C367.70,184.00 369.83,185.32 372.20,186.93 C372.76,187.31 373.34,187.73 373.93,188.18 ZM 393.47 344.92 C390.45,351.63 388.41,356.96 387.10,361.64 C387.53,359.96 388.00,358.36 388.46,357.00 C389.51,353.95 391.27,349.74 393.47,344.92 ZM 277.01 124.93 C276.76,124.53 276.50,124.14 276.24,123.75 C274.34,120.92 272.52,119.72 270.58,120.14 C270.88,120.05 271.16,120.00 271.40,120.00 C273.14,120.00 274.09,120.26 277.01,124.93 ZM 287.62 57.21 C290.15,57.21 292.84,57.65 295.68,58.52 C294.48,58.15 291.43,57.61 288.90,57.31 C288.47,57.26 288.04,57.23 287.62,57.21 ZM 448.92 197.50 C449.23,194.54 449.61,192.80 450.08,191.89 C450.13,191.80 450.18,191.70 450.22,191.59 C449.67,193.52 449.24,195.50 448.92,197.50 ZM 464.00 470.38 C464.34,471.97 465.07,473.97 465.79,475.42 C464.79,473.69 464.01,471.59 464.00,470.62 C464.00,470.54 464.00,470.46 464.00,470.38 ZM 398.02 234.54 C397.73,232.98 397.40,230.92 397.10,228.75 C396.62,225.34 396.00,222.46 395.02,219.43 C395.96,222.30 396.59,225.00 396.99,227.75 C397.27,229.67 397.65,232.14 398.02,234.54 ZM 134.96 288.00 C134.55,287.17 132.94,282.45 131.39,277.50 C132.94,282.45 134.60,287.26 135.07,288.18 C135.51,289.04 137.25,292.42 139.04,295.92 C137.77,293.58 136.44,291.00 134.96,288.00 ZM 291.00 191.44 C291.08,191.36 291.17,191.29 291.26,191.21 C291.17,191.31 291.08,191.40 291.01,191.49 C290.27,192.38 288.12,193.91 286.19,194.94 C287.79,194.01 289.81,192.55 291.00,191.44 ZM 37.03 366.28 C39.86,374.72 43.14,383.88 46.39,392.40 C43.36,384.62 40.00,375.19 37.03,366.28 ZM 274.87 167.60 C275.79,169.09 276.95,171.96 277.97,175.02 C276.86,171.96 275.64,168.97 274.87,167.60 ZM 285.58 195.28 C283.36,196.60 279.61,199.79 275.63,203.62 C279.80,199.59 283.68,196.26 285.50,195.32 C285.53,195.31 285.55,195.29 285.58,195.28 ZM 231.96 131.53 C232.53,131.17 233.00,130.11 233.00,129.17 C233.00,130.11 232.60,131.13 232.12,131.43 C231.68,131.70 230.84,133.05 229.74,135.16 C230.53,133.38 231.46,131.83 231.96,131.53 ZM 184.81 140.54 C186.26,137.34 188.81,132.29 191.43,127.50 C195.03,120.90 199.83,111.68 202.09,107.00 C199.83,111.68 195.04,120.90 191.44,127.50 C188.89,132.20 186.34,137.22 184.81,140.54 ZM 415.99 200.20 C416.00,200.30 416.00,200.39 416.00,200.47 C416.00,201.47 415.20,202.86 414.08,204.18 C415.13,202.85 415.88,201.40 415.99,200.20 ZM 230.21 57.80 C228.29,57.27 226.28,57.12 224.19,57.36 C226.69,57.07 228.30,57.13 230.21,57.80 ZM 479.53 470.98 C479.30,469.97 478.99,468.33 478.72,466.66 C478.83,467.20 478.95,467.71 479.06,468.18 C479.30,469.20 479.45,470.13 479.53,470.98 ZM 162.80 165.05 C164.20,166.67 166.10,167.91 167.77,168.00 C167.71,168.00 167.65,168.00 167.59,168.00 C166.04,168.00 164.18,166.72 162.80,165.05 ZM 497.94 342.72 C498.22,341.41 498.54,340.04 498.88,338.73 C499.14,337.71 499.39,336.71 499.63,335.72 C499.28,337.34 498.92,338.87 498.54,340.30 C498.33,341.10 498.12,341.92 497.94,342.72 ZM 273.00 164.08 C273.00,163.15 272.58,161.97 272.07,161.45 C272.58,161.97 273.00,163.06 273.00,163.87 C273.00,164.66 273.59,165.98 274.32,166.85 C273.59,166.21 273.00,164.98 273.00,164.08 ZM 297.79 131.22 C294.39,124.25 291.13,117.77 290.07,116.00 C291.34,118.12 294.46,124.34 297.79,131.22 ZM 470.14 478.96 C468.90,478.83 468.04,478.40 467.19,477.43 C468.00,478.22 469.02,478.73 470.14,478.96 ZM 332.85 444.07 C331.82,442.74 331.00,441.24 331.00,440.69 C331.00,440.12 330.25,438.83 329.34,437.82 C330.25,438.83 331.00,440.10 331.00,440.63 C331.00,441.04 331.77,442.46 332.85,444.07 ZM 409.51 181.37 C410.10,182.51 410.79,184.07 411.48,185.81 C411.07,184.87 410.59,183.79 410.02,182.55 C409.85,182.16 409.67,181.76 409.51,181.37 ZM 408.36 208.00 C406.54,208.00 404.98,207.33 403.47,205.69 C404.87,207.13 406.58,208.00 408.36,208.00 ZM 108.51 205.92 C106.77,207.50 104.89,208.13 103.10,207.85 C104.83,208.09 106.67,207.46 108.51,205.92 ZM 362.20 94.88 C363.92,97.72 366.50,101.75 370.61,108.04 C366.74,102.16 364.05,97.96 362.20,94.88 ZM 263.74 412.60 C266.07,411.11 268.53,409.67 270.87,408.42 C268.94,409.47 266.74,410.76 263.74,412.60 ZM 375.18 115.03 C377.41,118.54 379.49,122.04 380.35,123.77 C380.19,123.48 380.04,123.20 379.91,122.95 C378.91,121.11 377.06,118.01 375.18,115.03 ZM 431.65 131.45 C432.21,132.91 432.79,134.17 433.12,134.59 C433.86,135.53 435.62,139.54 437.18,143.49 C435.62,139.53 433.85,135.52 433.11,134.59 C432.69,134.06 432.07,132.71 431.65,131.45 ZM 256.07 110.98 L 260.01 108.49 C261.66,107.45 263.33,106.55 264.27,106.18 C262.93,106.80 261.20,107.74 259.78,108.64 ZM 273.43 63.46 C274.94,61.82 276.61,60.49 278.43,59.49 C276.62,60.51 274.94,61.85 273.43,63.46 ZM 413.49 94.16 C411.14,89.73 410.33,88.26 406.42,82.23 C410.33,88.25 411.14,89.73 413.49,94.13 C414.17,95.39 414.84,96.66 415.51,97.93 C414.75,96.52 414.05,95.21 413.49,94.16 ZM 102.63 313.19 C101.35,310.76 99.38,307.34 97.35,303.96 C99.48,307.49 101.51,311.01 102.63,313.19 ZM 29.39 261.52 C28.07,265.89 27.01,270.32 26.21,274.87 C27.01,270.32 28.07,265.89 29.39,261.52 C30.13,259.04 30.78,256.90 31.35,254.98 C30.77,256.94 30.13,259.09 29.39,261.52 ZM 42.92 153.57 C42.39,153.55 41.84,153.54 41.28,153.54 C38.33,153.52 36.51,153.57 35.18,153.85 C36.51,153.57 38.33,153.51 41.28,153.52 C41.83,153.52 42.37,153.54 42.92,153.57 ZM 427.09 313.53 C427.61,312.69 428.15,311.85 428.70,311.01 C430.25,308.64 431.54,306.67 432.70,304.88 C431.26,307.10 429.73,309.46 428.38,311.51 C427.95,312.18 427.51,312.85 427.09,313.53 ZM 83.74 158.66 C83.73,158.66 83.72,158.67 83.71,158.68 C82.62,159.35 80.77,159.42 78.99,159.05 C80.76,159.41 82.60,159.33 83.74,158.66 ZM 131.14 312.41 C131.47,312.84 131.80,313.22 132.11,313.56 C132.23,313.70 132.36,313.84 132.47,313.98 C132.12,313.68 131.67,313.14 131.14,312.41 ZM 103.25 86.68 C102.55,87.86 101.66,89.42 100.60,91.38 C101.56,89.58 102.48,87.95 103.25,86.68 ZM 486.62 275.89 C488.06,283.31 488.34,288.45 488.38,296.50 C488.34,288.48 488.06,283.29 486.62,275.89 ZM 73.00 152.20 C73.00,152.17 73.00,152.13 73.00,152.10 C73.00,152.11 73.00,152.13 73.00,152.14 C73.00,153.59 73.79,155.72 74.75,156.88 C73.79,155.72 73.00,153.62 73.00,152.20 ZM 341.29 166.69 C342.54,167.72 343.47,167.85 344.89,167.50 C343.46,167.85 342.55,167.75 341.29,166.69 ZM 99.78 206.13 C98.95,205.36 98.19,204.33 97.54,203.07 C97.52,203.04 97.51,203.01 97.49,202.98 C98.18,204.29 98.94,205.34 99.78,206.13 ZM 81.93 279.48 C82.29,280.45 82.79,281.16 83.47,282.10 C82.79,281.16 82.29,280.46 81.93,279.48 ZM 153.68 33.22 C154.10,33.25 154.53,33.30 154.95,33.37 C154.51,33.31 154.09,33.26 153.68,33.22 ZM 33.64 154.37 C32.90,154.74 32.27,155.28 31.50,156.05 C32.27,155.28 32.90,154.74 33.64,154.37 ZM 160.83 159.75 C160.80,159.99 160.78,160.21 160.77,160.42 C160.77,160.43 160.77,160.44 160.77,160.45 C160.77,160.40 160.77,160.36 160.77,160.31 C160.78,160.15 160.79,159.96 160.83,159.75 Z" fill="rgb(65,196,122)"/>
</g>
</svg>